<?xml version="1.0"?>
<svg xmlns="http://www.w3.org/2000/svg" xmlns:xlink="http://www.w3.org/1999/xlink" xmlns:svgjs="http://svgjs.com/svgjs" version="1.1" width="512" height="512" x="0" y="0" viewBox="0 0 512 512" style="enable-background:new 0 0 512 512" xml:space="preserve" class=""><g><g xmlns="http://www.w3.org/2000/svg"><path d="m37 322.345c4.143 0 7.5-3.357 7.5-7.5v-62.345c0-17.921 14.579-32.5 32.5-32.5h294.532c4.143 0 7.5-3.357 7.5-7.5s-3.357-7.5-7.5-7.5h-294.532c-3.719 0-7.335.444-10.811 1.256v-154.381c0-20.333 16.582-36.875 36.965-36.875h67.505c4.143 0 7.5-3.357 7.5-7.5s-3.357-7.5-7.5-7.5h-67.505c-28.653 0-51.965 23.271-51.965 51.875v160.781c-13.04 8.477-21.689 23.165-21.689 39.844v62.345c0 4.142 3.357 7.5 7.5 7.5z" fill="#3294a6" data-original="#000000" style="" class=""/><path d="m460.811 212.656v-45.354c0-10.879-4.24-21.111-11.938-28.811l-126.506-126.52c-7.718-7.72-17.985-11.971-28.91-11.971h-87.223c-4.143 0-7.5 3.357-7.5 7.5s3.357 7.5 7.5 7.5h87.223c2.165 0 4.288.264 6.334.775v107.696c0 20.714 16.85 37.566 37.561 37.566h107.694c.505 2.025.765 4.125.765 6.265v38.954c-3.476-.812-7.092-1.256-10.811-1.256h-28.468c-4.143 0-7.5 3.357-7.5 7.5s3.357 7.5 7.5 7.5h28.468c17.921 0 32.5 14.579 32.5 32.5v146c0 17.921-14.579 32.5-32.5 32.5h-358c-17.921 0-32.5-14.579-32.5-32.5v-48.655c0-4.143-3.357-7.5-7.5-7.5s-7.5 3.357-7.5 7.5v48.655c0 16.679 8.649 31.367 21.689 39.844v21.781c0 28.604 23.312 51.875 51.965 51.875h132.017c4.143 0 7.5-3.357 7.5-7.5s-3.357-7.5-7.5-7.5h-132.017c-20.383 0-36.965-16.542-36.965-36.875v-15.381c3.476.813 7.092 1.256 10.811 1.256h358c3.719 0 7.335-.443 10.811-1.256v15.381c0 20.333-16.582 36.875-36.965 36.875h-138.675c-4.143 0-7.5 3.357-7.5 7.5s3.357 7.5 7.5 7.5h138.675c28.653 0 51.965-23.271 51.965-51.875v-21.781c13.041-8.477 21.689-23.165 21.689-39.844v-146c0-16.679-8.649-31.367-21.689-39.844zm-146.02-89.185v-97.863l120.414 120.429h-97.854c-12.439 0-22.56-10.123-22.56-22.566z" fill="#3294a6" data-original="#000000" style="" class=""/><path d="m157.52 276.004c9.92 0 19.488 2.921 27.669 8.448 3.433 2.317 8.095 1.417 10.413-2.017 2.318-3.432 1.416-8.094-2.017-10.413-10.67-7.208-23.142-11.019-36.065-11.019-35.563 0-64.497 28.933-64.497 64.496s28.934 64.496 64.497 64.496c14.019 0 26.561-4.569 36.27-13.216 1.906-1.698 3.719-3.567 5.386-5.557 2.661-3.174 2.244-7.904-.931-10.565-3.174-2.661-7.905-2.245-10.565.931-1.2 1.432-2.501 2.774-3.865 3.989-7.018 6.249-15.864 9.418-26.294 9.418-27.293 0-49.497-22.204-49.497-49.496s22.203-49.495 49.496-49.495z" fill="#3294a6" data-original="#000000" style="" class=""/><path d="m268.15 374.996c-13.203 0-25.976-5.396-34.166-14.434-2.783-3.07-7.525-3.301-10.594-.521-3.069 2.781-3.303 7.524-.521 10.594 10.986 12.123 27.914 19.361 45.281 19.361 20.414 0 38.18-13.278 41.324-30.888 2.357-13.204-3.979-30.58-28.83-39.746-15.129-5.58-29.124-11.684-32.116-13.001-4.619-3.244-6.878-8.529-6.057-14.249.984-6.858 6.144-12.33 13.801-14.637 19.804-5.972 37.433 8.358 37.608 8.506 3.17 2.644 7.886 2.23 10.545-.934 2.665-3.171 2.255-7.902-.915-10.567-.962-.81-23.888-19.704-51.564-11.368-13.194 3.975-22.514 14.271-24.322 26.868-1.674 11.658 3.371 22.867 13.167 29.254.331.216.679.405 1.04.566.651.29 16.15 7.189 33.622 13.634 13.933 5.14 20.951 13.536 19.255 23.037-1.604 8.981-11.456 18.525-26.558 18.525z" fill="#3294a6" data-original="#000000" style="" class=""/><path d="m365.297 277.476c19.804-5.972 37.434 8.358 37.609 8.506 3.17 2.644 7.886 2.23 10.545-.934 2.665-3.171 2.255-7.902-.915-10.567-.963-.809-23.877-19.706-51.565-11.368-13.194 3.975-22.514 14.271-24.322 26.869-1.674 11.657 3.372 22.867 13.167 29.253.331.216.679.405 1.04.566.651.29 16.151 7.189 33.623 13.634 13.933 5.14 20.951 13.536 19.255 23.037-1.604 8.98-11.456 18.524-26.558 18.524-13.203 0-25.976-5.396-34.166-14.434-2.782-3.07-7.525-3.301-10.594-.521-3.069 2.781-3.303 7.524-.521 10.594 10.986 12.123 27.914 19.361 45.281 19.361 20.414 0 38.18-13.278 41.324-30.888 2.357-13.204-3.979-30.58-28.83-39.746-15.128-5.58-29.124-11.683-32.117-13.001-4.619-3.244-6.878-8.529-6.057-14.249.984-6.858 6.144-12.33 13.801-14.636z" fill="#3294a6" data-original="#000000" style="" class=""/></g></g></svg>
